solid Robot
facet normal 0.0 0.0 -1.0
outer loop
vertex 547.763346840632 -253.070151507654 0.0
vertex 544.057152715472 -257.583274113018 0.0
vertex 544.057152715472 -254.274461852481 0.0
endloop
endfacet
facet normal 0.0 0.0 -1.0
outer loop
vertex 544.057152715472 -257.583274113018 0.0
vertex 547.763346840632 -253.070151507654 0.0
vertex 545.93660673846 -256.639492184538 0.0
endloop
endfacet
facet normal 0.0 0.0 -1.0
outer loop
vertex 545.93660673846 -256.639492184538 0.0
vertex 547.763346840632 -253.070151507654 0.0
vertex 547.7146878368 -255.965362235623 0.0
endloop
endfacet
facet normal 0.0 0.0 -1.0
outer loop
vertex 547.7146878368 -255.965362235623 0.0
vertex 547.763346840632 -253.070151507654 0.0
vertex 549.391396010491 -255.560884266274 0.0
endloop
endfacet
facet normal 0.0 0.0 -1.0
outer loop
vertex 549.391396010491 -255.560884266274 0.0
vertex 547.763346840632 -253.070151507654 0.0
vertex 550.901852587758 -252.668714726044 0.0
endloop
endfacet
facet normal 0.0 0.0 -1.0
outer loop
vertex 549.391396010491 -255.560884266274 0.0
vertex 550.901852587758 -252.668714726044 0.0
vertex 550.966731259533 -255.426058276491 0.0
endloop
endfacet
facet normal 0.0 0.0 -1.0
outer loop
vertex 550.966731259533 -255.426058276491 0.0
vertex 550.901852587758 -252.668714726044 0.0
vertex 552.668275799763 -252.782252401651 0.0
endloop
endfacet
facet normal 0.0 0.0 -1.0
outer loop
vertex 550.966731259533 -255.426058276491 0.0
vertex 552.668275799763 -252.782252401651 0.0
vertex 552.945530748678 -255.722067216466 0.0
endloop
endfacet
facet normal 0.0 0.0 -1.0
outer loop
vertex 552.945530748678 -255.722067216466 0.0
vertex 552.668275799763 -252.782252401651 0.0
vertex 554.253241476647 -253.122865428471 0.0
endloop
endfacet
facet normal 0.0 0.0 -1.0
outer loop
vertex 552.945530748678 -255.722067216466 0.0
vertex 554.253241476647 -253.122865428471 0.0
vertex 554.502618871283 -256.610094036389 0.0
endloop
endfacet
facet normal 0.0 0.0 -1.0
outer loop
vertex 554.502618871283 -256.610094036389 0.0
vertex 554.253241476647 -253.122865428471 0.0
vertex 555.65674961841 -253.690553806504 0.0
endloop
endfacet
facet normal 0.0 0.0 -1.0
outer loop
vertex 554.502618871283 -256.610094036389 0.0
vertex 555.65674961841 -253.690553806504 0.0
vertex 555.091595563493 -257.252798378663 0.0
endloop
endfacet
facet normal 0.0 0.0 -1.0
outer loop
vertex 555.091595563493 -257.252798378663 0.0
vertex 555.65674961841 -253.690553806504 0.0
vertex 555.512293200785 -257.996875645585 0.0
endloop
endfacet
facet normal 0.0 0.0 -1.0
outer loop
vertex 555.512293200785 -257.996875645585 0.0
vertex 555.65674961841 -253.690553806504 0.0
vertex 555.848851310619 -259.789148953375 0.0
endloop
endfacet
facet normal 0.0 0.0 -1.0
outer loop
vertex 555.848851310619 -259.789148953375 0.0
vertex 555.65674961841 -253.690553806504 0.0
vertex 556.878800225051 -254.485317535751 0.0
endloop
endfacet
facet normal 0.0 0.0 -1.0
outer loop
vertex 555.848851310619 -259.789148953375 0.0
vertex 556.878800225051 -254.485317535751 0.0
vertex 556.546297032202 -265.56335074137 0.0
endloop
endfacet
facet normal 0.0 0.0 -1.0
outer loop
vertex 556.546297032202 -265.56335074137 0.0
vertex 556.878800225051 -254.485317535751 0.0
vertex 557.681673788269 -264.015386181983 0.0
endloop
endfacet
facet normal 0.0 0.0 -1.0
outer loop
vertex 557.681673788269 -264.015386181983 0.0
vertex 556.878800225051 -254.485317535751 0.0
vertex 557.120232400822 -254.729098514052 0.0
endloop
endfacet
facet normal 0.0 0.0 -1.0
outer loop
vertex 557.681673788269 -264.015386181983 0.0
vertex 557.120232400822 -254.729098514052 0.0
vertex 558.767592890626 -257.283771200981 0.0
endloop
endfacet
facet normal 0.0 0.0 -1.0
outer loop
vertex 558.767592890626 -257.283771200981 0.0
vertex 557.120232400822 -254.729098514052 0.0
vertex 563.245019892994 -253.122865428471 0.0
endloop
endfacet
facet normal 0.0 0.0 -1.0
outer loop
vertex 557.681673788269 -264.015386181983 0.0
vertex 558.767592890626 -257.283771200981 0.0
vertex 558.492657185459 -262.501888416977 0.0
endloop
endfacet
facet normal 0.0 0.0 -1.0
outer loop
vertex 558.767592890626 -257.283771200981 0.0
vertex 563.245019892994 -253.122865428471 0.0
vertex 563.277459228882 -256.107284330131 0.0
endloop
endfacet
facet normal 0.0 0.0 -1.0
outer loop
vertex 563.277459228882 -256.107284330131 0.0
vertex 563.245019892994 -253.122865428471 0.0
vertex 566.521392817643 -253.122865428471 0.0
endloop
endfacet
facet normal 0.0 0.0 -1.0
outer loop
vertex 563.277459228882 -256.107284330131 0.0
vertex 566.521392817643 -253.122865428471 0.0
vertex 563.277459228882 -274.581486118126 0.0
endloop
endfacet
facet normal 0.0 0.0 -1.0
outer loop
vertex 527.123819382139 -274.581486118126 0.0
vertex 523.117561400019 -277.322610000629 0.0
vertex 523.117561400019 -274.581486118126 0.0
endloop
endfacet
facet normal 0.0 0.0 -1.0
outer loop
vertex 523.117561400019 -277.322610000629 0.0
vertex 527.123819382139 -274.581486118126 0.0
vertex 571.208876853403 -277.322610000629 0.0
endloop
endfacet
facet normal 0.0 0.0 -1.0
outer loop
vertex 571.208876853403 -277.322610000629 0.0
vertex 527.123819382139 -274.581486118126 0.0
vertex 530.3677529709 -274.581486118126 0.0
endloop
endfacet
facet normal 0.0 0.0 -1.0
outer loop
vertex 530.3677529709 -274.581486118126 0.0
vertex 527.123819382139 -274.581486118126 0.0
vertex 530.3677529709 -253.122865428471 0.0
endloop
endfacet
facet normal 0.0 0.0 -1.0
outer loop
vertex 530.3677529709 -274.581486118126 0.0
vertex 530.3677529709 -253.122865428471 0.0
vertex 530.3677529709 -266.131039119403 0.0
endloop
endfacet
facet normal 0.0 0.0 -1.0
outer loop
vertex 530.3677529709 -274.581486118126 0.0
vertex 530.3677529709 -266.131039119403 0.0
vertex 530.3677529709 -268.823503998075 0.0
endloop
endfacet
facet normal 0.0 0.0 -1.0
outer loop
vertex 571.208876853403 -277.322610000629 0.0
vertex 530.3677529709 -274.581486118126 0.0
vertex 540.634802779329 -274.581486118126 0.0
endloop
endfacet
facet normal 0.0 0.0 -1.0
outer loop
vertex 571.208876853403 -277.322610000629 0.0
vertex 540.634802779329 -274.581486118126 0.0
vertex 543.894956036034 -274.565266450182 0.0
endloop
endfacet
facet normal 0.0 0.0 -1.0
outer loop
vertex 543.894956036034 -274.565266450182 0.0
vertex 540.634802779329 -274.581486118126 0.0
vertex 540.667242115216 -266.11481945146 0.0
endloop
endfacet
facet normal 0.0 0.0 -1.0
outer loop
vertex 543.894956036034 -274.565266450182 0.0
vertex 540.667242115216 -266.11481945146 0.0
vertex 543.894956036034 -268.823503998075 0.0
endloop
endfacet
facet normal 0.0 0.0 -1.0
outer loop
vertex 571.208876853403 -277.322610000629 0.0
vertex 543.894956036034 -274.565266450182 0.0
vertex 547.836335346379 -274.565266450182 0.0
endloop
endfacet
facet normal 0.0 0.0 -1.0
outer loop
vertex 571.208876853403 -277.322610000629 0.0
vertex 547.836335346379 -274.565266450182 0.0
vertex 559.271201246762 -274.565266450182 0.0
endloop
endfacet
facet normal 0.0 0.0 -1.0
outer loop
vertex 571.208876853403 -277.322610000629 0.0
vertex 559.271201246762 -274.565266450182 0.0
vertex 563.277459228882 -274.581486118126 0.0
endloop
endfacet
facet normal 0.0 0.0 -1.0
outer loop
vertex 571.208876853403 -277.322610000629 0.0
vertex 563.277459228882 -274.581486118126 0.0
vertex 566.521392817643 -274.581486118126 0.0
endloop
endfacet
facet normal 0.0 0.0 -1.0
outer loop
vertex 566.521392817643 -274.581486118126 0.0
vertex 563.277459228882 -274.581486118126 0.0
vertex 566.521392817643 -253.122865428471 0.0
endloop
endfacet
facet normal 0.0 0.0 -1.0
outer loop
vertex 571.208876853403 -277.322610000629 0.0
vertex 566.521392817643 -274.581486118126 0.0
vertex 571.208876853403 -274.581486118126 0.0
endloop
endfacet
facet normal 0.0 0.0 -1.0
outer loop
vertex 558.767592890626 -257.283771200981 0.0
vertex 558.979247223773 -261.022857446351 0.0
vertex 558.492657185459 -262.501888416977 0.0
endloop
endfacet
facet normal 0.0 0.0 -1.0
outer loop
vertex 558.979247223773 -261.022857446351 0.0
vertex 558.767592890626 -257.283771200981 0.0
vertex 559.000028673326 -258.031342439965 0.0
endloop
endfacet
facet normal 0.0 0.0 -1.0
outer loop
vertex 558.979247223773 -261.022857446351 0.0
vertex 559.000028673326 -258.031342439965 0.0
vertex 559.141443903212 -259.578293270106 0.0
endloop
endfacet
facet normal 0.0 0.0 -1.0
outer loop
vertex 534.37401095302 -266.11481945146 0.0
vertex 540.634802779329 -268.823503998075 0.0
vertex 530.3677529709 -268.823503998075 0.0
endloop
endfacet
facet normal 0.0 0.0 -1.0
outer loop
vertex 540.634802779329 -268.823503998075 0.0
vertex 534.37401095302 -266.11481945146 0.0
vertex 540.667242115216 -266.11481945146 0.0
endloop
endfacet
facet normal 0.0 0.0 -1.0
outer loop
vertex 540.634802779329 -268.823503998075 0.0
vertex 540.667242115216 -266.11481945146 0.0
vertex 540.634802779329 -274.581486118126 0.0
endloop
endfacet
facet normal 0.0 0.0 -1.0
outer loop
vertex 553.026629088397 -265.190298378663 0.0
vertex 547.836335346379 -274.565266450182 0.0
vertex 543.894956036034 -274.565266450182 0.0
endloop
endfacet
facet normal 0.0 0.0 -1.0
outer loop
vertex 547.836335346379 -274.565266450182 0.0
vertex 553.026629088397 -265.190298378663 0.0
vertex 552.296744030925 -270.12107743358 0.0
endloop
endfacet
facet normal 0.0 0.0 -1.0
outer loop
vertex 552.296744030925 -270.12107743358 0.0
vertex 553.026629088397 -265.190298378663 0.0
vertex 556.546297032202 -265.56335074137 0.0
endloop
endfacet
facet normal 0.0 0.0 -1.0
outer loop
vertex 556.546297032202 -265.56335074137 0.0
vertex 553.026629088397 -265.190298378663 0.0
vertex 554.261351310619 -263.709239949544 0.0
endloop
endfacet
facet normal 0.0 0.0 -1.0
outer loop
vertex 556.546297032202 -265.56335074137 0.0
vertex 554.261351310619 -263.709239949544 0.0
vertex 555.143295755063 -262.315362235623 0.0
endloop
endfacet
facet normal 0.0 0.0 -1.0
outer loop
vertex 556.546297032202 -265.56335074137 0.0
vertex 555.143295755063 -262.315362235623 0.0
vertex 555.67246242173 -261.0086652369 0.0
endloop
endfacet
facet normal 0.0 0.0 -1.0
outer loop
vertex 556.546297032202 -265.56335074137 0.0
vertex 555.67246242173 -261.0086652369 0.0
vertex 555.848851310619 -259.789148953375 0.0
endloop
endfacet
facet normal 0.0 0.0 -1.0
outer loop
vertex 540.586143775497 -253.106645760527 0.0
vertex 530.3677529709 -268.823503998075 0.0
vertex 530.3677529709 -266.131039119403 0.0
endloop
endfacet
facet normal 0.0 0.0 -1.0
outer loop
vertex 530.3677529709 -268.823503998075 0.0
vertex 540.586143775497 -253.106645760527 0.0
vertex 534.37401095302 -266.11481945146 0.0
endloop
endfacet
facet normal 0.0 0.0 -1.0
outer loop
vertex 534.37401095302 -266.11481945146 0.0
vertex 540.586143775497 -253.106645760527 0.0
vertex 540.667242115216 -258.102303487219 0.0
endloop
endfacet
facet normal 0.0 0.0 -1.0
outer loop
vertex 540.667242115216 -258.102303487219 0.0
vertex 540.586143775497 -253.106645760527 0.0
vertex 544.057152715472 -253.106645760527 0.0
endloop
endfacet
facet normal 0.0 0.0 -1.0
outer loop
vertex 540.667242115216 -258.102303487219 0.0
vertex 544.057152715472 -253.106645760527 0.0
vertex 540.667242115216 -266.11481945146 0.0
endloop
endfacet
facet normal 0.0 0.0 -1.0
outer loop
vertex 540.667242115216 -266.11481945146 0.0
vertex 544.057152715472 -253.106645760527 0.0
vertex 543.894956036034 -268.823503998075 0.0
endloop
endfacet
facet normal 0.0 0.0 -1.0
outer loop
vertex 543.894956036034 -268.823503998075 0.0
vertex 544.057152715472 -253.106645760527 0.0
vertex 544.057152715472 -266.098599783516 0.0
endloop
endfacet
facet normal 0.0 0.0 -1.0
outer loop
vertex 543.894956036034 -268.823503998075 0.0
vertex 544.057152715472 -266.098599783516 0.0
vertex 547.349745308065 -268.823503998075 0.0
endloop
endfacet
facet normal 0.0 0.0 -1.0
outer loop
vertex 544.057152715472 -266.098599783516 0.0
vertex 544.057152715472 -253.106645760527 0.0
vertex 544.057152715472 -254.274461852481 0.0
endloop
endfacet
facet normal 0.0 0.0 -1.0
outer loop
vertex 544.057152715472 -266.098599783516 0.0
vertex 544.057152715472 -254.274461852481 0.0
vertex 544.057152715472 -257.583274113018 0.0
endloop
endfacet
facet normal 0.0 0.0 -1.0
outer loop
vertex 547.349745308065 -268.823503998075 0.0
vertex 544.057152715472 -266.098599783516 0.0
vertex 547.349745308065 -266.098599783516 0.0
endloop
endfacet
facet normal 0.0 0.0 -1.0
outer loop
vertex 527.091380046251 -253.122865428471 0.0
vertex 522.647191029648 -257.275100422085 0.0
vertex 522.647191029648 -254.290681520425 0.0
endloop
endfacet
facet normal 0.0 0.0 -1.0
outer loop
vertex 522.647191029648 -257.275100422085 0.0
vertex 527.091380046251 -253.122865428471 0.0
vertex 527.123819382139 -256.107284330131 0.0
endloop
endfacet
facet normal 0.0 0.0 -1.0
outer loop
vertex 527.123819382139 -256.107284330131 0.0
vertex 527.091380046251 -253.122865428471 0.0
vertex 530.3677529709 -253.122865428471 0.0
endloop
endfacet
facet normal 0.0 0.0 -1.0
outer loop
vertex 527.123819382139 -256.107284330131 0.0
vertex 530.3677529709 -253.122865428471 0.0
vertex 527.123819382139 -274.581486118126 0.0
endloop
endfacet
facet normal 0.0 0.0 1.0
outer loop
vertex 547.836335346379 -274.565266450182 5.0
vertex 553.026629088397 -265.190298378663 5.0
vertex 543.894956036034 -274.565266450182 5.0
endloop
endfacet
facet normal 0.0 0.0 1.0
outer loop
vertex 553.026629088397 -265.190298378663 5.0
vertex 547.836335346379 -274.565266450182 5.0
vertex 552.296744030925 -270.12107743358 5.0
endloop
endfacet
facet normal 0.0 0.0 1.0
outer loop
vertex 553.026629088397 -265.190298378663 5.0
vertex 552.296744030925 -270.12107743358 5.0
vertex 556.546297032202 -265.56335074137 5.0
endloop
endfacet
facet normal 0.0 0.0 1.0
outer loop
vertex 553.026629088397 -265.190298378663 5.0
vertex 556.546297032202 -265.56335074137 5.0
vertex 554.261351310619 -263.709239949544 5.0
endloop
endfacet
facet normal 0.0 0.0 1.0
outer loop
vertex 554.261351310619 -263.709239949544 5.0
vertex 556.546297032202 -265.56335074137 5.0
vertex 555.143295755063 -262.315362235623 5.0
endloop
endfacet
facet normal 0.0 0.0 1.0
outer loop
vertex 555.143295755063 -262.315362235623 5.0
vertex 556.546297032202 -265.56335074137 5.0
vertex 555.67246242173 -261.0086652369 5.0
endloop
endfacet
facet normal 0.0 0.0 1.0
outer loop
vertex 555.67246242173 -261.0086652369 5.0
vertex 556.546297032202 -265.56335074137 5.0
vertex 555.848851310619 -259.789148953375 5.0
endloop
endfacet
facet normal 0.0 0.0 1.0
outer loop
vertex 558.979247223773 -261.022857446351 5.0
vertex 558.767592890626 -257.283771200981 5.0
vertex 558.492657185459 -262.501888416977 5.0
endloop
endfacet
facet normal 0.0 0.0 1.0
outer loop
vertex 558.767592890626 -257.283771200981 5.0
vertex 558.979247223773 -261.022857446351 5.0
vertex 559.000028673326 -258.031342439965 5.0
endloop
endfacet
facet normal 0.0 0.0 1.0
outer loop
vertex 559.000028673326 -258.031342439965 5.0
vertex 558.979247223773 -261.022857446351 5.0
vertex 559.141443903212 -259.578293270106 5.0
endloop
endfacet
facet normal 0.0 0.0 1.0
outer loop
vertex 571.208876853403 -277.322610000629 5.0
vertex 523.117561400019 -274.581486118126 5.0
vertex 523.117561400019 -277.322610000629 5.0
endloop
endfacet
facet normal 0.0 0.0 1.0
outer loop
vertex 523.117561400019 -274.581486118126 5.0
vertex 571.208876853403 -277.322610000629 5.0
vertex 527.123819382139 -274.581486118126 5.0
endloop
endfacet
facet normal 0.0 0.0 1.0
outer loop
vertex 527.123819382139 -274.581486118126 5.0
vertex 571.208876853403 -277.322610000629 5.0
vertex 530.3677529709 -274.581486118126 5.0
endloop
endfacet
facet normal 0.0 0.0 1.0
outer loop
vertex 527.123819382139 -274.581486118126 5.0
vertex 530.3677529709 -274.581486118126 5.0
vertex 527.123819382139 -256.107284330131 5.0
endloop
endfacet
facet normal 0.0 0.0 1.0
outer loop
vertex 530.3677529709 -274.581486118126 5.0
vertex 571.208876853403 -277.322610000629 5.0
vertex 540.634802779329 -274.581486118126 5.0
endloop
endfacet
facet normal 0.0 0.0 1.0
outer loop
vertex 540.634802779329 -274.581486118126 5.0
vertex 571.208876853403 -277.322610000629 5.0
vertex 543.894956036034 -274.565266450182 5.0
endloop
endfacet
facet normal 0.0 0.0 1.0
outer loop
vertex 540.634802779329 -274.581486118126 5.0
vertex 543.894956036034 -274.565266450182 5.0
vertex 540.634802779329 -268.823503998075 5.0
endloop
endfacet
facet normal 0.0 0.0 1.0
outer loop
vertex 540.634802779329 -268.823503998075 5.0
vertex 543.894956036034 -274.565266450182 5.0
vertex 540.667242115216 -266.11481945146 5.0
endloop
endfacet
facet normal 0.0 0.0 1.0
outer loop
vertex 540.667242115216 -266.11481945146 5.0
vertex 543.894956036034 -274.565266450182 5.0
vertex 540.667242115216 -258.102303487219 5.0
endloop
endfacet
facet normal 0.0 0.0 1.0
outer loop
vertex 543.894956036034 -274.565266450182 5.0
vertex 571.208876853403 -277.322610000629 5.0
vertex 547.836335346379 -274.565266450182 5.0
endloop
endfacet
facet normal 0.0 0.0 1.0
outer loop
vertex 547.836335346379 -274.565266450182 5.0
vertex 571.208876853403 -277.322610000629 5.0
vertex 559.271201246762 -274.565266450182 5.0
endloop
endfacet
facet normal 0.0 0.0 1.0
outer loop
vertex 559.271201246762 -274.565266450182 5.0
vertex 571.208876853403 -277.322610000629 5.0
vertex 563.277459228882 -274.581486118126 5.0
endloop
endfacet
facet normal 0.0 0.0 1.0
outer loop
vertex 563.277459228882 -274.581486118126 5.0
vertex 571.208876853403 -277.322610000629 5.0
vertex 566.521392817643 -274.581486118126 5.0
endloop
endfacet
facet normal 0.0 0.0 1.0
outer loop
vertex 563.277459228882 -274.581486118126 5.0
vertex 566.521392817643 -274.581486118126 5.0
vertex 563.277459228882 -256.107284330131 5.0
endloop
endfacet
facet normal 0.0 0.0 1.0
outer loop
vertex 566.521392817643 -274.581486118126 5.0
vertex 571.208876853403 -277.322610000629 5.0
vertex 571.208876853403 -274.581486118126 5.0
endloop
endfacet
facet normal 0.0 0.0 1.0
outer loop
vertex 545.93660673846 -256.639492184538 5.0
vertex 544.057152715472 -254.274461852481 5.0
vertex 544.057152715472 -257.583274113018 5.0
endloop
endfacet
facet normal 0.0 0.0 1.0
outer loop
vertex 544.057152715472 -254.274461852481 5.0
vertex 545.93660673846 -256.639492184538 5.0
vertex 547.763346840632 -253.070151507654 5.0
endloop
endfacet
facet normal 0.0 0.0 1.0
outer loop
vertex 547.763346840632 -253.070151507654 5.0
vertex 545.93660673846 -256.639492184538 5.0
vertex 547.7146878368 -255.965362235623 5.0
endloop
endfacet
facet normal 0.0 0.0 1.0
outer loop
vertex 547.763346840632 -253.070151507654 5.0
vertex 547.7146878368 -255.965362235623 5.0
vertex 549.391396010491 -255.560884266274 5.0
endloop
endfacet
facet normal 0.0 0.0 1.0
outer loop
vertex 547.763346840632 -253.070151507654 5.0
vertex 549.391396010491 -255.560884266274 5.0
vertex 550.901852587758 -252.668714726044 5.0
endloop
endfacet
facet normal 0.0 0.0 1.0
outer loop
vertex 550.901852587758 -252.668714726044 5.0
vertex 549.391396010491 -255.560884266274 5.0
vertex 550.966731259533 -255.426058276491 5.0
endloop
endfacet
facet normal 0.0 0.0 1.0
outer loop
vertex 550.901852587758 -252.668714726044 5.0
vertex 550.966731259533 -255.426058276491 5.0
vertex 552.668275799763 -252.782252401651 5.0
endloop
endfacet
facet normal 0.0 0.0 1.0
outer loop
vertex 552.668275799763 -252.782252401651 5.0
vertex 550.966731259533 -255.426058276491 5.0
vertex 552.945530748678 -255.722067216466 5.0
endloop
endfacet
facet normal 0.0 0.0 1.0
outer loop
vertex 552.668275799763 -252.782252401651 5.0
vertex 552.945530748678 -255.722067216466 5.0
vertex 554.253241476647 -253.122865428471 5.0
endloop
endfacet
facet normal 0.0 0.0 1.0
outer loop
vertex 554.253241476647 -253.122865428471 5.0
vertex 552.945530748678 -255.722067216466 5.0
vertex 554.502618871283 -256.610094036389 5.0
endloop
endfacet
facet normal 0.0 0.0 1.0
outer loop
vertex 554.253241476647 -253.122865428471 5.0
vertex 554.502618871283 -256.610094036389 5.0
vertex 555.65674961841 -253.690553806504 5.0
endloop
endfacet
facet normal 0.0 0.0 1.0
outer loop
vertex 555.65674961841 -253.690553806504 5.0
vertex 554.502618871283 -256.610094036389 5.0
vertex 555.091595563493 -257.252798378663 5.0
endloop
endfacet
facet normal 0.0 0.0 1.0
outer loop
vertex 555.65674961841 -253.690553806504 5.0
vertex 555.091595563493 -257.252798378663 5.0
vertex 555.512293200785 -257.996875645585 5.0
endloop
endfacet
facet normal 0.0 0.0 1.0
outer loop
vertex 555.65674961841 -253.690553806504 5.0
vertex 555.512293200785 -257.996875645585 5.0
vertex 555.848851310619 -259.789148953375 5.0
endloop
endfacet
facet normal 0.0 0.0 1.0
outer loop
vertex 555.65674961841 -253.690553806504 5.0
vertex 555.848851310619 -259.789148953375 5.0
vertex 556.878800225051 -254.485317535751 5.0
endloop
endfacet
facet normal 0.0 0.0 1.0
outer loop
vertex 556.878800225051 -254.485317535751 5.0
vertex 555.848851310619 -259.789148953375 5.0
vertex 556.546297032202 -265.56335074137 5.0
endloop
endfacet
facet normal 0.0 0.0 1.0
outer loop
vertex 556.878800225051 -254.485317535751 5.0
vertex 556.546297032202 -265.56335074137 5.0
vertex 557.681673788269 -264.015386181983 5.0
endloop
endfacet
facet normal 0.0 0.0 1.0
outer loop
vertex 556.878800225051 -254.485317535751 5.0
vertex 557.681673788269 -264.015386181983 5.0
vertex 557.120232400822 -254.729098514052 5.0
endloop
endfacet
facet normal 0.0 0.0 1.0
outer loop
vertex 557.120232400822 -254.729098514052 5.0
vertex 557.681673788269 -264.015386181983 5.0
vertex 558.767592890626 -257.283771200981 5.0
endloop
endfacet
facet normal 0.0 0.0 1.0
outer loop
vertex 557.120232400822 -254.729098514052 5.0
vertex 558.767592890626 -257.283771200981 5.0
vertex 563.245019892994 -253.122865428471 5.0
endloop
endfacet
facet normal 0.0 0.0 1.0
outer loop
vertex 558.767592890626 -257.283771200981 5.0
vertex 557.681673788269 -264.015386181983 5.0
vertex 558.492657185459 -262.501888416977 5.0
endloop
endfacet
facet normal 0.0 0.0 1.0
outer loop
vertex 563.245019892994 -253.122865428471 5.0
vertex 558.767592890626 -257.283771200981 5.0
vertex 563.277459228882 -256.107284330131 5.0
endloop
endfacet
facet normal 0.0 0.0 1.0
outer loop
vertex 563.245019892994 -253.122865428471 5.0
vertex 563.277459228882 -256.107284330131 5.0
vertex 566.521392817643 -253.122865428471 5.0
endloop
endfacet
facet normal 0.0 0.0 1.0
outer loop
vertex 566.521392817643 -253.122865428471 5.0
vertex 563.277459228882 -256.107284330131 5.0
vertex 566.521392817643 -274.581486118126 5.0
endloop
endfacet
facet normal 0.0 0.0 1.0
outer loop
vertex 547.349745308065 -268.823503998075 5.0
vertex 544.057152715472 -266.098599783516 5.0
vertex 543.894956036034 -268.823503998075 5.0
endloop
endfacet
facet normal 0.0 0.0 1.0
outer loop
vertex 544.057152715472 -266.098599783516 5.0
vertex 547.349745308065 -268.823503998075 5.0
vertex 547.349745308065 -266.098599783516 5.0
endloop
endfacet
facet normal 0.0 0.0 1.0
outer loop
vertex 534.37401095302 -266.11481945146 5.0
vertex 540.586143775497 -253.106645760527 5.0
vertex 530.3677529709 -266.131039119403 5.0
endloop
endfacet
facet normal 0.0 0.0 1.0
outer loop
vertex 540.586143775497 -253.106645760527 5.0
vertex 534.37401095302 -266.11481945146 5.0
vertex 540.667242115216 -258.102303487219 5.0
endloop
endfacet
facet normal 0.0 0.0 1.0
outer loop
vertex 540.586143775497 -253.106645760527 5.0
vertex 540.667242115216 -258.102303487219 5.0
vertex 544.057152715472 -253.106645760527 5.0
endloop
endfacet
facet normal 0.0 0.0 1.0
outer loop
vertex 544.057152715472 -253.106645760527 5.0
vertex 540.667242115216 -258.102303487219 5.0
vertex 543.894956036034 -268.823503998075 5.0
endloop
endfacet
facet normal 0.0 0.0 1.0
outer loop
vertex 543.894956036034 -268.823503998075 5.0
vertex 540.667242115216 -258.102303487219 5.0
vertex 543.894956036034 -274.565266450182 5.0
endloop
endfacet
facet normal 0.0 0.0 1.0
outer loop
vertex 544.057152715472 -253.106645760527 5.0
vertex 543.894956036034 -268.823503998075 5.0
vertex 544.057152715472 -266.098599783516 5.0
endloop
endfacet
facet normal 0.0 0.0 1.0
outer loop
vertex 544.057152715472 -253.106645760527 5.0
vertex 544.057152715472 -266.098599783516 5.0
vertex 544.057152715472 -257.583274113018 5.0
endloop
endfacet
facet normal 0.0 0.0 1.0
outer loop
vertex 544.057152715472 -253.106645760527 5.0
vertex 544.057152715472 -257.583274113018 5.0
vertex 544.057152715472 -254.274461852481 5.0
endloop
endfacet
facet normal 0.0 0.0 1.0
outer loop
vertex 540.634802779329 -268.823503998075 5.0
vertex 530.3677529709 -266.131039119403 5.0
vertex 530.3677529709 -268.823503998075 5.0
endloop
endfacet
facet normal 0.0 0.0 1.0
outer loop
vertex 530.3677529709 -266.131039119403 5.0
vertex 540.634802779329 -268.823503998075 5.0
vertex 534.37401095302 -266.11481945146 5.0
endloop
endfacet
facet normal 0.0 0.0 1.0
outer loop
vertex 534.37401095302 -266.11481945146 5.0
vertex 540.634802779329 -268.823503998075 5.0
vertex 540.667242115216 -266.11481945146 5.0
endloop
endfacet
facet normal 0.0 0.0 1.0
outer loop
vertex 527.123819382139 -256.107284330131 5.0
vertex 522.647191029648 -254.290681520425 5.0
vertex 522.647191029648 -257.275100422085 5.0
endloop
endfacet
facet normal 0.0 0.0 1.0
outer loop
vertex 522.647191029648 -254.290681520425 5.0
vertex 527.123819382139 -256.107284330131 5.0
vertex 527.091380046251 -253.122865428471 5.0
endloop
endfacet
facet normal 0.0 0.0 1.0
outer loop
vertex 527.091380046251 -253.122865428471 5.0
vertex 527.123819382139 -256.107284330131 5.0
vertex 530.3677529709 -253.122865428471 5.0
endloop
endfacet
facet normal 0.0 0.0 1.0
outer loop
vertex 530.3677529709 -253.122865428471 5.0
vertex 527.123819382139 -256.107284330131 5.0
vertex 530.3677529709 -274.581486118126 5.0
endloop
endfacet
facet normal 0.0 0.0 1.0
outer loop
vertex 530.3677529709 -253.122865428471 5.0
vertex 530.3677529709 -274.581486118126 5.0
vertex 530.3677529709 -268.823503998075 5.0
endloop
endfacet
facet normal 0.0 0.0 1.0
outer loop
vertex 530.3677529709 -253.122865428471 5.0
vertex 530.3677529709 -268.823503998075 5.0
vertex 530.3677529709 -266.131039119403 5.0
endloop
endfacet
facet normal 1.0 0.0 0.0
outer loop
vertex 571.208876853403 -274.581486118126 0.0
vertex 571.208876853403 -277.322610000629 5.0
vertex 571.208876853403 -277.322610000629 0.0
endloop
endfacet
facet normal 1.0 0.0 0.0
outer loop
vertex 571.208876853403 -277.322610000629 5.0
vertex 571.208876853403 -274.581486118126 0.0
vertex 571.208876853403 -274.581486118126 5.0
endloop
endfacet
facet normal 0.0 -1.0 0.0
outer loop
vertex 571.208876853403 -277.322610000629 5.0
vertex 523.117561400019 -277.322610000629 0.0
vertex 571.208876853403 -277.322610000629 0.0
endloop
endfacet
facet normal 0.0 -1.0 0.0
outer loop
vertex 523.117561400019 -277.322610000629 0.0
vertex 571.208876853403 -277.322610000629 5.0
vertex 523.117561400019 -277.322610000629 5.0
endloop
endfacet
facet normal -1.0 0.0 0.0
outer loop
vertex 523.117561400019 -274.581486118126 5.0
vertex 523.117561400019 -277.322610000629 0.0
vertex 523.117561400019 -277.322610000629 5.0
endloop
endfacet
facet normal -1.0 0.0 0.0
outer loop
vertex 523.117561400019 -277.322610000629 0.0
vertex 523.117561400019 -274.581486118126 5.0
vertex 523.117561400019 -274.581486118126 0.0
endloop
endfacet
facet normal 0.0 1.0 0.0
outer loop
vertex 523.117561400019 -274.581486118126 5.0
vertex 527.123819382139 -274.581486118126 0.0
vertex 523.117561400019 -274.581486118126 0.0
endloop
endfacet
facet normal 0.0 1.0 0.0
outer loop
vertex 527.123819382139 -274.581486118126 0.0
vertex 523.117561400019 -274.581486118126 5.0
vertex 527.123819382139 -274.581486118126 5.0
endloop
endfacet
facet normal -1.0 0.0 0.0
outer loop
vertex 527.123819382139 -256.107284330131 5.0
vertex 527.123819382139 -274.581486118126 0.0
vertex 527.123819382139 -274.581486118126 5.0
endloop
endfacet
facet normal -1.0 0.0 0.0
outer loop
vertex 527.123819382139 -274.581486118126 0.0
vertex 527.123819382139 -256.107284330131 5.0
vertex 527.123819382139 -256.107284330131 0.0
endloop
endfacet
facet normal 0.252421897147003 -0.967617272396844 0.0
outer loop
vertex 527.123819382139 -256.107284330131 5.0
vertex 522.647191029648 -257.275100422085 0.0
vertex 527.123819382139 -256.107284330131 0.0
endloop
endfacet
facet normal 0.252421897147003 -0.967617272396844 0.0
outer loop
vertex 522.647191029648 -257.275100422085 0.0
vertex 527.123819382139 -256.107284330131 5.0
vertex 522.647191029648 -257.275100422085 5.0
endloop
endfacet
facet normal -1.0 0.0 0.0
outer loop
vertex 522.647191029648 -254.290681520425 5.0
vertex 522.647191029648 -257.275100422085 0.0
vertex 522.647191029648 -257.275100422085 5.0
endloop
endfacet
facet normal -1.0 0.0 0.0
outer loop
vertex 522.647191029648 -257.275100422085 0.0
vertex 522.647191029648 -254.290681520425 5.0
vertex 522.647191029648 -254.290681520425 0.0
endloop
endfacet
facet normal -0.254145789327195 0.967165920495164 0.0
outer loop
vertex 522.647191029648 -254.290681520425 5.0
vertex 527.091380046251 -253.122865428471 0.0
vertex 522.647191029648 -254.290681520425 0.0
endloop
endfacet
facet normal -0.128128996532472 0.991757510809765 0.0
outer loop
vertex 527.091380046251 -253.122865428471 0.0
vertex 522.647191029648 -254.290681520425 5.0
vertex 527.091380046251 -253.122865428471 5.0
endloop
endfacet
facet normal -0.128128996532472 0.991757510809765 0.0
outer loop
vertex 527.091380046251 -253.122865428471 5.0
vertex 530.3677529709 -253.122865428471 0.0
vertex 527.091380046251 -253.122865428471 0.0
endloop
endfacet
facet normal 0.0 1.0 0.0
outer loop
vertex 530.3677529709 -253.122865428471 0.0
vertex 527.091380046251 -253.122865428471 5.0
vertex 530.3677529709 -253.122865428471 5.0
endloop
endfacet
facet normal 1.0 0.0 0.0
outer loop
vertex 530.3677529709 -253.122865428471 0.0
vertex 530.3677529709 -266.131039119403 5.0
vertex 530.3677529709 -266.131039119403 0.0
endloop
endfacet
facet normal 1.0 0.0 0.0
outer loop
vertex 530.3677529709 -266.131039119403 5.0
vertex 530.3677529709 -253.122865428471 0.0
vertex 530.3677529709 -253.122865428471 5.0
endloop
endfacet
facet normal -0.786760118578771 0.617258872608501 0.0
outer loop
vertex 540.586143775497 -253.106645760527 5.0
vertex 530.3677529709 -266.131039119403 0.0
vertex 530.3677529709 -266.131039119403 5.0
endloop
endfacet
facet normal -0.786760118578771 0.617258872608501 0.0
outer loop
vertex 530.3677529709 -266.131039119403 0.0
vertex 540.586143775497 -253.106645760527 5.0
vertex 540.586143775497 -253.106645760527 0.0
endloop
endfacet
facet normal 0.0 1.0 0.0
outer loop
vertex 540.586143775497 -253.106645760527 5.0
vertex 544.057152715472 -253.106645760527 0.0
vertex 540.586143775497 -253.106645760527 0.0
endloop
endfacet
facet normal 0.0 1.0 0.0
outer loop
vertex 544.057152715472 -253.106645760527 0.0
vertex 540.586143775497 -253.106645760527 5.0
vertex 544.057152715472 -253.106645760527 5.0
endloop
endfacet
facet normal 1.0 0.0 0.0
outer loop
vertex 544.057152715472 -253.106645760527 0.0
vertex 544.057152715472 -254.274461852481 5.0
vertex 544.057152715472 -254.274461852481 0.0
endloop
endfacet
facet normal 1.0 0.0 0.0
outer loop
vertex 544.057152715472 -254.274461852481 5.0
vertex 544.057152715472 -253.106645760527 0.0
vertex 544.057152715472 -253.106645760527 5.0
endloop
endfacet
facet normal -0.3090390155248 0.951049360907972 0.0
outer loop
vertex 544.057152715472 -254.274461852481 5.0
vertex 547.763346840632 -253.070151507654 0.0
vertex 544.057152715472 -254.274461852481 0.0
endloop
endfacet
facet normal -0.218912032765006 0.975744598709464 0.0
outer loop
vertex 547.763346840632 -253.070151507654 0.0
vertex 544.057152715472 -254.274461852481 5.0
vertex 547.763346840632 -253.070151507654 5.0
endloop
endfacet
facet normal -0.218912032765006 0.975744598709464 0.0
outer loop
vertex 547.763346840632 -253.070151507654 5.0
vertex 550.901852587758 -252.668714726044 0.0
vertex 547.763346840632 -253.070151507654 0.0
endloop
endfacet
facet normal -0.0315093070008404 0.999503458509438 0.0
outer loop
vertex 550.901852587758 -252.668714726044 0.0
vertex 547.763346840632 -253.070151507654 5.0
vertex 550.901852587758 -252.668714726044 5.0
endloop
endfacet
facet normal -0.0315093070008404 0.999503458509438 0.0
outer loop
vertex 550.901852587758 -252.668714726044 5.0
vertex 552.668275799763 -252.782252401651 0.0
vertex 550.901852587758 -252.668714726044 0.0
endloop
endfacet
facet normal 0.137498072359493 0.990502034373188 0.0
outer loop
vertex 552.668275799763 -252.782252401651 0.0
vertex 550.901852587758 -252.668714726044 5.0
vertex 552.668275799763 -252.782252401651 5.0
endloop
endfacet
facet normal 0.137498072359493 0.990502034373188 0.0
outer loop
vertex 552.668275799763 -252.782252401651 5.0
vertex 554.253241476647 -253.122865428471 0.0
vertex 552.668275799763 -252.782252401651 0.0
endloop
endfacet
facet normal 0.293629883834422 0.955919186604905 0.0
outer loop
vertex 554.253241476647 -253.122865428471 0.0
vertex 552.668275799763 -252.782252401651 5.0
vertex 554.253241476647 -253.122865428471 5.0
endloop
endfacet
facet normal 0.293629883834422 0.955919186604905 0.0
outer loop
vertex 554.253241476647 -253.122865428471 5.0
vertex 555.65674961841 -253.690553806504 0.0
vertex 554.253241476647 -253.122865428471 0.0
endloop
endfacet
facet normal 0.462215476983158 0.886767643093292 0.0
outer loop
vertex 555.65674961841 -253.690553806504 0.0
vertex 554.253241476647 -253.122865428471 5.0
vertex 555.65674961841 -253.690553806504 5.0
endloop
endfacet
facet normal 0.462215476983158 0.886767643093292 0.0
outer loop
vertex 555.65674961841 -253.690553806504 5.0
vertex 556.878800225051 -254.485317535751 0.0
vertex 555.65674961841 -253.690553806504 0.0
endloop
endfacet
facet normal 0.631457134685083 0.775410786006556 0.0
outer loop
vertex 556.878800225051 -254.485317535751 0.0
vertex 555.65674961841 -253.690553806504 5.0
vertex 556.878800225051 -254.485317535751 5.0
endloop
endfacet
facet normal 0.631457134685083 0.775410786006556 0.0
outer loop
vertex 556.878800225051 -254.485317535751 0.0
vertex 557.120232400822 -254.729098514052 5.0
vertex 557.120232400822 -254.729098514052 0.0
endloop
endfacet
facet normal 0.710521393696713 0.703675599334864 0.0
outer loop
vertex 557.120232400822 -254.729098514052 5.0
vertex 556.878800225051 -254.485317535751 0.0
vertex 556.878800225051 -254.485317535751 5.0
endloop
endfacet
facet normal -0.25367300577351 0.967290032069923 0.0
outer loop
vertex 557.120232400822 -254.729098514052 5.0
vertex 563.245019892994 -253.122865428471 0.0
vertex 557.120232400822 -254.729098514052 0.0
endloop
endfacet
facet normal -0.12788660588599 0.991788796082594 0.0
outer loop
vertex 563.245019892994 -253.122865428471 0.0
vertex 557.120232400822 -254.729098514052 5.0
vertex 563.245019892994 -253.122865428471 5.0
endloop
endfacet
facet normal -0.12788660588599 0.991788796082594 0.0
outer loop
vertex 563.245019892994 -253.122865428471 5.0
vertex 566.521392817643 -253.122865428471 0.0
vertex 563.245019892994 -253.122865428471 0.0
endloop
endfacet
facet normal 0.0 1.0 0.0
outer loop
vertex 566.521392817643 -253.122865428471 0.0
vertex 563.245019892994 -253.122865428471 5.0
vertex 566.521392817643 -253.122865428471 5.0
endloop
endfacet
facet normal 1.0 0.0 0.0
outer loop
vertex 566.521392817643 -253.122865428471 0.0
vertex 566.521392817643 -274.581486118126 5.0
vertex 566.521392817643 -274.581486118126 0.0
endloop
endfacet
facet normal 1.0 0.0 0.0
outer loop
vertex 566.521392817643 -274.581486118126 5.0
vertex 566.521392817643 -253.122865428471 0.0
vertex 566.521392817643 -253.122865428471 5.0
endloop
endfacet
facet normal 0.0 1.0 0.0
outer loop
vertex 566.521392817643 -274.581486118126 5.0
vertex 571.208876853403 -274.581486118126 0.0
vertex 566.521392817643 -274.581486118126 0.0
endloop
endfacet
facet normal 0.0 1.0 0.0
outer loop
vertex 571.208876853403 -274.581486118126 0.0
vertex 566.521392817643 -274.581486118126 5.0
vertex 571.208876853403 -274.581486118126 5.0
endloop
endfacet
facet normal -1.0 0.0 0.0
outer loop
vertex 540.667242115216 -258.102303487219 5.0
vertex 540.667242115216 -266.11481945146 0.0
vertex 540.667242115216 -266.11481945146 5.0
endloop
endfacet
facet normal -1.0 0.0 0.0
outer loop
vertex 540.667242115216 -266.11481945146 0.0
vertex 540.667242115216 -258.102303487219 5.0
vertex 540.667242115216 -258.102303487219 0.0
endloop
endfacet
facet normal 0.786428809357941 -0.617680927188019 0.0
outer loop
vertex 540.667242115216 -258.102303487219 0.0
vertex 534.37401095302 -266.11481945146 5.0
vertex 534.37401095302 -266.11481945146 0.0
endloop
endfacet
facet normal 0.786428809357941 -0.617680927188019 0.0
outer loop
vertex 534.37401095302 -266.11481945146 5.0
vertex 540.667242115216 -258.102303487219 0.0
vertex 540.667242115216 -258.102303487219 5.0
endloop
endfacet
facet normal 0.0 1.0 0.0
outer loop
vertex 534.37401095302 -266.11481945146 5.0
vertex 540.667242115216 -266.11481945146 0.0
vertex 534.37401095302 -266.11481945146 0.0
endloop
endfacet
facet normal 0.0 1.0 0.0
outer loop
vertex 540.667242115216 -266.11481945146 0.0
vertex 534.37401095302 -266.11481945146 5.0
vertex 540.667242115216 -266.11481945146 5.0
endloop
endfacet
facet normal 0.252421897147002 -0.967617272396844 0.0
outer loop
vertex 563.277459228882 -256.107284330131 5.0
vertex 558.767592890626 -257.283771200981 0.0
vertex 563.277459228882 -256.107284330131 0.0
endloop
endfacet
facet normal 0.252421897147002 -0.967617272396844 0.0
outer loop
vertex 558.767592890626 -257.283771200981 0.0
vertex 563.277459228882 -256.107284330131 5.0
vertex 558.767592890626 -257.283771200981 5.0
endloop
endfacet
facet normal 0.954908189340419 0.29690124609136 0.0
outer loop
vertex 558.767592890626 -257.283771200981 0.0
vertex 559.000028673326 -258.031342439965 5.0
vertex 559.000028673326 -258.031342439965 0.0
endloop
endfacet
facet normal 0.980794162298952 0.195045664397591 0.0
outer loop
vertex 559.000028673326 -258.031342439965 5.0
vertex 558.767592890626 -257.283771200981 0.0
vertex 558.767592890626 -257.283771200981 5.0
endloop
endfacet
facet normal 0.980794162298952 0.195045664397591 0.0
outer loop
vertex 559.000028673326 -258.031342439965 0.0
vertex 559.141443903212 -259.578293270106 5.0
vertex 559.141443903212 -259.578293270106 0.0
endloop
endfacet
facet normal 0.999946696051725 -0.0103249724086761 0.0
outer loop
vertex 559.141443903212 -259.578293270106 5.0
vertex 559.000028673326 -258.031342439965 0.0
vertex 559.000028673326 -258.031342439965 5.0
endloop
endfacet
facet normal 0.999946696051725 -0.0103249724086761 0.0
outer loop
vertex 559.141443903212 -259.578293270106 0.0
vertex 558.979247223773 -261.022857446351 5.0
vertex 558.979247223773 -261.022857446351 0.0
endloop
endfacet
facet normal 0.97701359840678 -0.213176988739955 0.0
outer loop
vertex 558.979247223773 -261.022857446351 5.0
vertex 559.141443903212 -259.578293270106 0.0
vertex 559.141443903212 -259.578293270106 5.0
endloop
endfacet
facet normal 0.97701359840678 -0.213176988739955 0.0
outer loop
vertex 558.979247223773 -261.022857446351 0.0
vertex 558.492657185459 -262.501888416977 5.0
vertex 558.492657185459 -262.501888416977 0.0
endloop
endfacet
facet normal 0.919153454185389 -0.393899641608199 0.0
outer loop
vertex 558.492657185459 -262.501888416977 5.0
vertex 558.979247223773 -261.022857446351 0.0
vertex 558.979247223773 -261.022857446351 5.0
endloop
endfacet
facet normal 0.919153454185389 -0.393899641608199 0.0
outer loop
vertex 558.492657185459 -262.501888416977 0.0
vertex 557.681673788269 -264.015386181983 5.0
vertex 557.681673788269 -264.015386181983 0.0
endloop
endfacet
facet normal 0.845994859109992 -0.533191052400043 0.0
outer loop
vertex 557.681673788269 -264.015386181983 5.0
vertex 558.492657185459 -262.501888416977 0.0
vertex 558.492657185459 -262.501888416977 5.0
endloop
endfacet
facet normal 0.845994859109992 -0.533191052400043 0.0
outer loop
vertex 557.681673788269 -264.015386181983 0.0
vertex 556.546297032202 -265.56335074137 5.0
vertex 556.546297032202 -265.56335074137 0.0
endloop
endfacet
facet normal 0.770208824656784 -0.637791789239102 0.0
outer loop
vertex 556.546297032202 -265.56335074137 5.0
vertex 557.681673788269 -264.015386181983 0.0
vertex 557.681673788269 -264.015386181983 5.0
endloop
endfacet
facet normal 0.770208824656784 -0.637791789239102 0.0
outer loop
vertex 556.546297032202 -265.56335074137 0.0
vertex 552.296744030925 -270.12107743358 5.0
vertex 552.296744030925 -270.12107743358 0.0
endloop
endfacet
facet normal 0.718731158501167 -0.695288085472181 0.0
outer loop
vertex 552.296744030925 -270.12107743358 5.0
vertex 556.546297032202 -265.56335074137 0.0
vertex 556.546297032202 -265.56335074137 5.0
endloop
endfacet
facet normal 0.718731158501167 -0.695288085472181 0.0
outer loop
vertex 552.296744030925 -270.12107743358 5.0
vertex 547.836335346379 -274.565266450182 0.0
vertex 552.296744030925 -270.12107743358 0.0
endloop
endfacet
facet normal 0.705817619798918 -0.708393596513542 0.0
outer loop
vertex 547.836335346379 -274.565266450182 0.0
vertex 552.296744030925 -270.12107743358 5.0
vertex 547.836335346379 -274.565266450182 5.0
endloop
endfacet
facet normal 0.0 1.0 0.0
outer loop
vertex 547.836335346379 -274.565266450182 5.0
vertex 559.271201246762 -274.565266450182 0.0
vertex 547.836335346379 -274.565266450182 0.0
endloop
endfacet
facet normal 0.00202427905553419 0.999997951145054 0.0
outer loop
vertex 559.271201246762 -274.565266450182 0.0
vertex 547.836335346379 -274.565266450182 5.0
vertex 559.271201246762 -274.565266450182 5.0
endloop
endfacet
facet normal 0.00202427905553419 0.999997951145054 0.0
outer loop
vertex 559.271201246762 -274.565266450182 5.0
vertex 563.277459228882 -274.581486118126 0.0
vertex 559.271201246762 -274.565266450182 0.0
endloop
endfacet
facet normal 0.00404854981616008 0.999991804588611 0.0
outer loop
vertex 563.277459228882 -274.581486118126 0.0
vertex 559.271201246762 -274.565266450182 5.0
vertex 563.277459228882 -274.581486118126 5.0
endloop
endfacet
facet normal -1.0 0.0 0.0
outer loop
vertex 563.277459228882 -256.107284330131 5.0
vertex 563.277459228882 -274.581486118126 0.0
vertex 563.277459228882 -274.581486118126 5.0
endloop
endfacet
facet normal -1.0 0.0 0.0
outer loop
vertex 563.277459228882 -274.581486118126 0.0
vertex 563.277459228882 -256.107284330131 5.0
vertex 563.277459228882 -256.107284330131 0.0
endloop
endfacet
facet normal 1.0 0.0 0.0
outer loop
vertex 543.894956036034 -268.823503998075 0.0
vertex 543.894956036034 -274.565266450182 5.0
vertex 543.894956036034 -274.565266450182 0.0
endloop
endfacet
facet normal 1.0 0.0 0.0
outer loop
vertex 543.894956036034 -274.565266450182 5.0
vertex 543.894956036034 -268.823503998075 0.0
vertex 543.894956036034 -268.823503998075 5.0
endloop
endfacet
facet normal -0.742771267649293 0.669545251610869 0.0
outer loop
vertex 553.026629088397 -265.190298378663 5.0
vertex 543.894956036034 -274.565266450182 0.0
vertex 543.894956036034 -274.565266450182 5.0
endloop
endfacet
facet normal -0.716340764711643 0.69775060645788 0.0
outer loop
vertex 543.894956036034 -274.565266450182 0.0
vertex 553.026629088397 -265.190298378663 5.0
vertex 553.026629088397 -265.190298378663 0.0
endloop
endfacet
facet normal -0.808299332333432 0.588771763376376 0.0
outer loop
vertex 554.261351310619 -263.709239949544 5.0
vertex 553.026629088397 -265.190298378663 0.0
vertex 553.026629088397 -265.190298378663 5.0
endloop
endfacet
facet normal -0.742771267649293 0.669545251610869 0.0
outer loop
vertex 553.026629088397 -265.190298378663 0.0
vertex 554.261351310619 -263.709239949544 5.0
vertex 554.261351310619 -263.709239949544 0.0
endloop
endfacet
facet normal -0.889540467795015 0.456856384605737 0.0
outer loop
vertex 555.143295755063 -262.315362235623 5.0
vertex 554.261351310619 -263.709239949544 0.0
vertex 554.261351310619 -263.709239949544 5.0
endloop
endfacet
facet normal -0.808299332333432 0.588771763376376 0.0
outer loop
vertex 554.261351310619 -263.709239949544 0.0
vertex 555.143295755063 -262.315362235623 5.0
vertex 555.143295755063 -262.315362235623 0.0
endloop
endfacet
facet normal -0.965298907166613 0.26114750587157 0.0
outer loop
vertex 555.67246242173 -261.0086652369 5.0
vertex 555.143295755063 -262.315362235623 0.0
vertex 555.143295755063 -262.315362235623 5.0
endloop
endfacet
facet normal -0.889540467795015 0.456856384605737 0.0
outer loop
vertex 555.143295755063 -262.315362235623 0.0
vertex 555.67246242173 -261.0086652369 5.0
vertex 555.67246242173 -261.0086652369 0.0
endloop
endfacet
facet normal -0.999779729757825 -0.0209879004516972 0.0
outer loop
vertex 555.848851310619 -259.789148953375 5.0
vertex 555.67246242173 -261.0086652369 0.0
vertex 555.67246242173 -261.0086652369 5.0
endloop
endfacet
facet normal -0.965298907166613 0.26114750587157 0.0
outer loop
vertex 555.67246242173 -261.0086652369 0.0
vertex 555.848851310619 -259.789148953375 5.0
vertex 555.848851310619 -259.789148953375 0.0
endloop
endfacet
facet normal -0.939337197688247 -0.34299508602776 0.0
outer loop
vertex 555.512293200785 -257.996875645585 5.0
vertex 555.848851310619 -259.789148953375 0.0
vertex 555.848851310619 -259.789148953375 5.0
endloop
endfacet
facet normal -0.999779729757825 -0.0209879004516972 0.0
outer loop
vertex 555.848851310619 -259.789148953375 0.0
vertex 555.512293200785 -257.996875645585 5.0
vertex 555.512293200785 -257.996875645585 0.0
endloop
endfacet
facet normal -0.809089485558655 -0.587685463797116 0.0
outer loop
vertex 555.091595563493 -257.252798378663 5.0
vertex 555.512293200785 -257.996875645585 0.0
vertex 555.512293200785 -257.996875645585 5.0
endloop
endfacet
facet normal -0.939337197688247 -0.34299508602776 0.0
outer loop
vertex 555.512293200785 -257.996875645585 0.0
vertex 555.091595563493 -257.252798378663 5.0
vertex 555.091595563493 -257.252798378663 0.0
endloop
endfacet
facet normal -0.623841343348276 -0.78155100814305 0.0
outer loop
vertex 554.502618871283 -256.610094036389 5.0
vertex 555.091595563493 -257.252798378663 0.0
vertex 555.091595563493 -257.252798378663 5.0
endloop
endfacet
facet normal -0.809089485558655 -0.587685463797116 0.0
outer loop
vertex 555.091595563493 -257.252798378663 0.0
vertex 554.502618871283 -256.610094036389 5.0
vertex 554.502618871283 -256.610094036389 0.0
endloop
endfacet
facet normal -0.623841343348276 -0.78155100814305 0.0
outer loop
vertex 554.502618871283 -256.610094036389 5.0
vertex 552.945530748678 -255.722067216466 0.0
vertex 554.502618871283 -256.610094036389 0.0
endloop
endfacet
facet normal -0.495407918451865 -0.868660459751214 0.0
outer loop
vertex 552.945530748678 -255.722067216466 0.0
vertex 554.502618871283 -256.610094036389 5.0
vertex 552.945530748678 -255.722067216466 5.0
endloop
endfacet
facet normal -0.147944034049019 -0.988995734464665 0.0
outer loop
vertex 552.945530748678 -255.722067216466 5.0
vertex 550.966731259533 -255.426058276491 0.0
vertex 552.945530748678 -255.722067216466 0.0
endloop
endfacet
facet normal -0.0315505507498354 -0.999502157450089 0.0
outer loop
vertex 550.966731259533 -255.426058276491 0.0
vertex 552.945530748678 -255.722067216466 5.0
vertex 550.966731259533 -255.426058276491 5.0
endloop
endfacet
facet normal -0.0315505507498354 -0.999502157450089 0.0
outer loop
vertex 550.966731259533 -255.426058276491 5.0
vertex 549.391396010491 -255.560884266274 0.0
vertex 550.966731259533 -255.426058276491 0.0
endloop
endfacet
facet normal 0.160348974983752 -0.987060386309602 0.0
outer loop
vertex 549.391396010491 -255.560884266274 0.0
vertex 550.966731259533 -255.426058276491 5.0
vertex 549.391396010491 -255.560884266274 5.0
endloop
endfacet
facet normal 0.160348974983752 -0.987060386309602 0.0
outer loop
vertex 549.391396010491 -255.560884266274 5.0
vertex 547.7146878368 -255.965362235623 0.0
vertex 549.391396010491 -255.560884266274 0.0
endloop
endfacet
facet normal 0.295090467364582 -0.955469317179025 0.0
outer loop
vertex 547.7146878368 -255.965362235623 0.0
vertex 549.391396010491 -255.560884266274 5.0
vertex 547.7146878368 -255.965362235623 5.0
endloop
endfacet
facet normal 0.295090467364582 -0.955469317179025 0.0
outer loop
vertex 547.7146878368 -255.965362235623 5.0
vertex 545.93660673846 -256.639492184538 0.0
vertex 547.7146878368 -255.965362235623 0.0
endloop
endfacet
facet normal 0.402165509409246 -0.9155669844646 0.0
outer loop
vertex 545.93660673846 -256.639492184538 0.0
vertex 547.7146878368 -255.965362235623 5.0
vertex 545.93660673846 -256.639492184538 5.0
endloop
endfacet
facet normal 0.402165509409246 -0.9155669844646 0.0
outer loop
vertex 545.93660673846 -256.639492184538 5.0
vertex 544.057152715472 -257.583274113018 0.0
vertex 545.93660673846 -256.639492184538 0.0
endloop
endfacet
facet normal 0.448755376486918 -0.89365463803087 0.0
outer loop
vertex 544.057152715472 -257.583274113018 0.0
vertex 545.93660673846 -256.639492184538 5.0
vertex 544.057152715472 -257.583274113018 5.0
endloop
endfacet
facet normal 1.0 0.0 0.0
outer loop
vertex 544.057152715472 -257.583274113018 0.0
vertex 544.057152715472 -266.098599783516 5.0
vertex 544.057152715472 -266.098599783516 0.0
endloop
endfacet
facet normal 1.0 0.0 0.0
outer loop
vertex 544.057152715472 -266.098599783516 5.0
vertex 544.057152715472 -257.583274113018 0.0
vertex 544.057152715472 -257.583274113018 5.0
endloop
endfacet
facet normal 0.0 1.0 0.0
outer loop
vertex 544.057152715472 -266.098599783516 5.0
vertex 547.349745308065 -266.098599783516 0.0
vertex 544.057152715472 -266.098599783516 0.0
endloop
endfacet
facet normal 0.0 1.0 0.0
outer loop
vertex 547.349745308065 -266.098599783516 0.0
vertex 544.057152715472 -266.098599783516 5.0
vertex 547.349745308065 -266.098599783516 5.0
endloop
endfacet
facet normal 1.0 0.0 0.0
outer loop
vertex 547.349745308065 -266.098599783516 0.0
vertex 547.349745308065 -268.823503998075 5.0
vertex 547.349745308065 -268.823503998075 0.0
endloop
endfacet
facet normal 1.0 0.0 0.0
outer loop
vertex 547.349745308065 -268.823503998075 5.0
vertex 547.349745308065 -266.098599783516 0.0
vertex 547.349745308065 -266.098599783516 5.0
endloop
endfacet
facet normal 0.0 -1.0 0.0
outer loop
vertex 547.349745308065 -268.823503998075 5.0
vertex 543.894956036034 -268.823503998075 0.0
vertex 547.349745308065 -268.823503998075 0.0
endloop
endfacet
facet normal 0.0 -1.0 0.0
outer loop
vertex 543.894956036034 -268.823503998075 0.0
vertex 547.349745308065 -268.823503998075 5.0
vertex 543.894956036034 -268.823503998075 5.0
endloop
endfacet
facet normal 0.0 1.0 0.0
outer loop
vertex 530.3677529709 -274.581486118126 5.0
vertex 540.634802779329 -274.581486118126 0.0
vertex 530.3677529709 -274.581486118126 0.0
endloop
endfacet
facet normal 0.0 1.0 0.0
outer loop
vertex 540.634802779329 -274.581486118126 0.0
vertex 530.3677529709 -274.581486118126 5.0
vertex 540.634802779329 -274.581486118126 5.0
endloop
endfacet
facet normal -1.0 -6.26878830535391e-015 0.0
outer loop
vertex 540.634802779329 -268.823503998075 5.0
vertex 540.634802779329 -274.581486118126 0.0
vertex 540.634802779329 -274.581486118126 5.0
endloop
endfacet
facet normal -1.0 -6.26878830535391e-015 0.0
outer loop
vertex 540.634802779329 -274.581486118126 0.0
vertex 540.634802779329 -268.823503998075 5.0
vertex 540.634802779329 -268.823503998075 0.0
endloop
endfacet
facet normal 0.0 -1.0 0.0
outer loop
vertex 540.634802779329 -268.823503998075 5.0
vertex 530.3677529709 -268.823503998075 0.0
vertex 540.634802779329 -268.823503998075 0.0
endloop
endfacet
facet normal 0.0 -1.0 0.0
outer loop
vertex 530.3677529709 -268.823503998075 0.0
vertex 540.634802779329 -268.823503998075 5.0
vertex 530.3677529709 -268.823503998075 5.0
endloop
endfacet
facet normal 1.0 0.0 0.0
outer loop
vertex 530.3677529709 -268.823503998075 0.0
vertex 530.3677529709 -274.581486118126 5.0
vertex 530.3677529709 -274.581486118126 0.0
endloop
endfacet
facet normal 1.0 0.0 0.0
outer loop
vertex 530.3677529709 -274.581486118126 5.0
vertex 530.3677529709 -268.823503998075 0.0
vertex 530.3677529709 -268.823503998075 5.0
endloop
endfacet
endsolid Robot
